<svg version="1.1" id="Layer_1" xmlns="http://www.w3.org/2000/svg" xmlns:xlink="http://www.w3.org/1999/xlink" x="0px" y="0px"
	 width="100%" viewBox="0 0 1148 1080" enable-background="new 0 0 1148 1080" xml:space="preserve">
<path fill="#F4F6FC" opacity="1.000000" stroke="none" 
	d="
M1149.000000,499.000000 
	C1149.000000,526.687561 1149.000000,554.375122 1148.624756,582.222046 
	C1147.846680,582.894653 1147.147339,583.374512 1147.085449,583.925964 
	C1146.010864,593.499573 1145.311523,603.125061 1143.928101,612.651794 
	C1142.067017,625.467773 1140.264160,638.338196 1137.418701,650.955811 
	C1131.129272,678.846558 1123.015991,706.241211 1111.924683,732.637207 
	C1105.771240,747.282104 1099.534058,761.950989 1092.249756,776.048584 
	C1079.668579,800.397644 1065.832642,824.117920 1048.901245,845.730652 
	C1033.709595,865.122742 1018.372864,884.531006 1001.541870,902.470215 
	C986.583191,918.413879 970.012390,932.983582 953.180115,946.990479 
	C937.391113,960.129272 920.684326,972.256042 903.737732,983.890564 
	C880.496277,999.846924 855.720276,1013.206055 830.109924,1025.074951 
	C808.102051,1035.274170 785.795105,1044.704712 762.574646,1051.653931 
	C741.500305,1057.960938 720.328430,1064.250732 698.818970,1068.713989 
	C674.001892,1073.863770 648.930542,1078.215332 623.449707,1079.083008 
	C622.612366,1079.111450 621.815674,1080.334106 621.000000,1081.000000 
	C590.645752,1081.000000 560.291565,1081.000000 529.778015,1080.623413 
	C528.938354,1079.837891 528.286560,1079.134766 527.573181,1079.065308 
	C519.913635,1078.319702 512.220276,1077.873779 504.583038,1076.956543 
	C491.990082,1075.443848 479.333191,1074.168091 466.884369,1071.828613 
	C452.337616,1069.095093 437.899811,1065.655273 423.571472,1061.920776 
	C408.043610,1057.873657 392.405243,1053.943237 377.332489,1048.523071 
	C348.337128,1038.096191 319.773956,1026.489014 292.827759,1011.335938 
	C280.213287,1004.242249 267.265228,997.603516 255.298035,989.528931 
	C236.803482,977.050049 218.745193,963.875793 201.031631,950.305054 
	C188.967072,941.062012 177.211182,931.243652 166.390671,920.592163 
	C152.283447,906.705444 138.677017,892.214355 125.897041,877.102234 
	C113.556763,862.510071 102.131134,847.089661 91.041504,831.507996 
	C75.904602,810.239746 62.554356,787.805969 52.082684,763.853455 
	C43.288383,743.737549 34.615402,723.515686 27.163393,702.880432 
	C19.352137,681.250366 13.272799,659.011414 9.994302,636.145203 
	C7.573155,619.258545 5.348614,602.343750 2.928587,585.456909 
	C2.800643,584.564148 1.666001,583.815613 1.000007,583.000000 
	C1.000000,555.312439 1.000000,527.624878 1.375306,499.777893 
	C2.153247,499.105438 2.852515,498.625732 2.914400,498.074463 
	C3.989099,488.500885 4.688349,478.875366 6.071871,469.348663 
	C7.933085,456.532654 9.735472,443.662079 12.581067,431.044495 
	C18.871098,403.153931 26.983582,375.759064 38.075134,349.363159 
	C44.228886,334.718384 50.464897,320.048889 57.750008,305.951843 
	C70.332718,281.603668 84.166252,257.881805 101.098335,236.269394 
	C116.290581,216.877701 131.626816,197.468994 148.457809,179.529816 
	C163.416565,163.586182 179.987473,149.016479 196.819778,135.009583 
	C212.608795,121.870834 229.315628,109.744041 246.262222,98.109451 
	C269.503723,82.153107 294.279785,68.793777 319.890259,56.925060 
	C341.898010,46.725956 364.204773,37.295128 387.425171,30.346073 
	C408.499573,24.039236 429.671448,17.749645 451.180847,13.285902 
	C475.997955,8.135734 501.069336,3.784601 526.550232,2.917068 
	C527.387573,2.888559 528.184326,1.665965 529.000000,0.999994 
	C559.354248,1.000000 589.708435,1.000000 620.221985,1.376620 
	C621.061707,2.162084 621.713501,2.865128 622.426880,2.934561 
	C630.086487,3.680051 637.779785,4.126035 645.417053,5.043455 
	C658.010010,6.556150 670.666992,7.831946 683.115845,10.171336 
	C697.662537,12.904966 712.100403,16.344761 726.428772,20.079302 
	C741.956604,24.126467 757.594971,28.056665 772.667725,33.476864 
	C801.663086,43.903645 830.226257,55.511108 857.172424,70.664024 
	C869.786926,77.757690 882.734863,84.396538 894.702087,92.471138 
	C913.196655,104.950027 931.254883,118.124352 948.968506,131.695190 
	C961.033081,140.938141 972.789001,150.756500 983.609558,161.407959 
	C997.716736,175.294769 1011.323242,189.785843 1024.103149,204.898056 
	C1036.443481,219.490265 1047.869141,234.910629 1058.958740,250.492416 
	C1074.095581,271.760712 1087.445923,294.194305 1097.917358,318.146912 
	C1106.711548,338.262939 1115.384644,358.484833 1122.836670,379.120148 
	C1130.648071,400.750092 1136.727295,422.989075 1140.005737,445.855225 
	C1142.426880,462.741791 1144.651489,479.656555 1147.071533,496.543274 
	C1147.199463,497.435974 1148.333984,498.184418 1149.000000,499.000000 
M693.588074,600.036682 
	C693.750854,599.693176 693.913635,599.349609 694.006592,599.005615 
	C694.006592,599.005615 694.015503,599.074890 694.743225,599.021606 
	C707.069702,592.609314 718.083923,584.301514 727.271851,574.003235 
	C732.479370,568.166382 736.330994,561.046143 740.286682,554.210815 
	C741.484985,552.140198 741.702454,548.891357 741.052795,546.546875 
	C740.490356,544.517029 738.346313,542.215942 736.372864,541.508179 
	C734.756226,540.928345 731.994446,542.023926 730.373596,543.228821 
	C722.144592,549.345947 714.122131,555.740845 705.199402,562.006653 
	C703.198242,562.439087 700.897766,562.389038 699.259155,563.405762 
	C695.985107,565.437256 693.073975,568.053406 689.383301,570.716003 
	C688.897705,571.123230 688.412109,571.530457 688.002014,571.969543 
	C688.002014,571.969543 687.927673,571.924866 687.176636,571.817566 
	C657.719482,583.892761 627.161316,588.834351 595.400146,585.985352 
	C550.625854,581.968933 518.525513,555.057251 506.893005,511.707092 
	C501.305389,490.884186 500.614960,469.682190 501.855042,448.281799 
	C503.754883,415.494873 511.051758,384.079712 525.229492,354.397369 
	C538.902100,325.772644 557.027466,300.935150 586.245300,285.113281 
	C602.155823,285.205963 618.352478,298.691284 620.758728,315.715088 
	C622.225403,326.091949 621.997559,336.958710 620.793396,347.405151 
	C618.889771,363.919586 612.529114,378.946320 600.525574,390.895599 
	C595.289246,396.108246 589.237915,400.502136 582.768982,405.928589 
	C585.670166,408.793091 588.447327,412.352234 591.969116,414.869415 
	C606.465759,425.230713 622.258179,424.647278 638.053406,418.776794 
	C644.808777,416.266113 650.921936,412.027405 658.062500,408.466370 
	C668.931213,407.476471 678.797791,403.792633 687.512329,397.226929 
	C704.973572,384.071381 712.398865,365.713165 714.382874,344.651062 
	C718.617065,299.700806 691.076660,262.355560 646.959106,252.644669 
	C623.510864,247.483414 600.330994,249.045837 576.335876,254.203171 
	C566.310547,255.477051 556.209778,256.328278 546.273682,258.102203 
	C513.392578,263.972626 484.435089,278.249390 459.378876,300.235382 
	C428.794678,327.071991 408.468445,360.638611 396.202698,399.160065 
	C388.967499,421.882629 384.981964,445.200104 383.628357,469.116425 
	C382.283600,492.876465 382.970398,516.321228 389.097015,539.365479 
	C401.045959,584.309692 427.140656,618.087463 469.300323,638.493958 
	C494.587280,650.733521 521.576172,655.069641 549.625793,654.287659 
	C568.848389,653.751770 587.713623,651.289978 606.222290,646.325562 
	C637.858887,637.839966 666.367920,623.304443 691.529846,601.083008 
	C692.046326,600.721985 692.562805,600.360901 693.003235,600.002747 
	C693.003235,600.002747 693.007263,600.078674 693.588074,600.036682 
M228.246384,862.075195 
	C224.482086,863.186157 220.717789,864.297119 216.093582,865.428345 
	C207.055191,866.116333 198.916931,863.387024 191.848633,858.052795 
	C173.159424,843.948486 164.386902,824.931274 166.180649,801.656067 
	C167.586807,783.410156 174.391800,768.059326 193.775467,760.679871 
	C219.013260,753.598816 233.286865,768.100342 245.918488,788.541809 
	C245.918488,783.835388 245.539413,780.692444 246.001495,777.678528 
	C246.830475,772.271423 244.218887,768.856445 240.275589,765.906433 
	C225.743759,755.034912 209.864090,753.648438 192.252594,759.113770 
	C163.480560,768.926514 147.684341,797.259094 155.366364,826.577393 
	C162.231262,852.777100 188.413315,872.119995 217.780121,866.968079 
	C221.550873,865.853394 225.321609,864.738708 229.830963,863.402161 
	C236.233200,859.073792 242.683731,854.813721 248.992035,850.352539 
	C250.096970,849.571167 251.228149,847.970703 251.280899,846.704102 
	C251.523392,840.881958 251.387680,835.044006 251.387680,829.211792 
	C248.143158,843.246948 241.895096,854.827148 228.246384,862.075195 
M273.675354,866.555298 
	C273.848175,864.928467 274.167664,863.302002 274.171265,861.674805 
	C274.208160,845.028137 274.193787,828.381287 274.193726,811.734497 
	C274.193726,810.010681 274.193695,808.286865 274.193695,807.725403 
	C280.384674,809.035278 285.983063,810.722046 291.692047,811.282593 
	C297.116272,811.815125 302.656677,811.188538 308.145050,811.036438 
	C313.229523,810.895569 317.622070,812.446777 321.425568,816.982361 
	C322.197968,822.346191 323.470062,827.694336 323.638428,833.077026 
	C323.985291,844.168457 323.742798,855.278198 323.742798,866.497253 
	C328.194702,866.497253 332.079254,866.497253 336.151764,866.497253 
	C336.151764,829.807251 336.151764,793.413574 336.151764,756.736694 
	C332.005554,756.736694 328.101654,756.736694 323.927582,756.736694 
	C323.927582,775.973145 323.927582,794.918152 323.378571,814.453918 
	C318.941162,812.621155 314.642273,809.911316 310.030457,809.182922 
	C304.566010,808.319824 298.832092,809.187683 293.214417,809.263062 
	C286.694061,809.350525 280.249176,809.182556 275.787628,802.255798 
	C275.241516,800.353516 274.269226,798.461487 274.223328,796.547241 
	C274.027771,788.392334 274.101593,780.230896 274.086548,772.071838 
	C274.077209,766.996277 274.084839,761.920654 274.084839,756.736572 
	C269.592163,756.736572 265.834076,756.736572 262.060547,756.736572 
	C262.060547,793.534363 262.060547,830.029053 262.060547,866.577759 
	C265.995239,866.577759 269.464264,866.577759 273.675354,866.555298 
M958.526306,771.600830 
	C962.298157,768.107666 966.070068,764.614563 969.841919,761.121460 
	C970.303894,761.469543 970.765808,761.817688 971.227722,762.165771 
	C971.227722,796.886047 971.227722,831.606323 971.227722,866.530396 
	C975.582947,866.530396 979.476440,866.530396 983.608765,866.530396 
	C983.608765,829.859253 983.608765,793.475647 983.608765,756.701843 
	C971.973083,756.737488 963.410278,761.811707 956.330078,771.195251 
	C945.338318,787.093018 941.221375,805.232666 938.848633,824.794434 
	C938.374390,828.289856 937.900146,831.785278 937.274597,836.395935 
	C936.254639,834.420471 935.757935,833.584595 935.375610,832.699280 
	C925.815979,810.565247 916.215942,788.448547 906.741882,766.277954 
	C902.339478,755.975647 902.452209,755.923096 891.348877,756.448792 
	C890.696960,756.479614 890.052490,756.667297 889.289551,756.802368 
	C889.289551,793.349670 889.289551,829.818970 889.289551,866.288269 
	C889.726318,866.291138 890.163086,866.293945 890.599854,866.296753 
	C890.599854,832.503357 890.599854,798.709900 891.318420,764.508118 
	C891.580200,764.593872 891.842041,764.679565 892.250244,765.491455 
	C906.994019,799.373779 921.737793,833.256165 936.481567,867.138489 
	C936.908813,866.960938 937.335999,866.783325 937.763245,866.605774 
	C938.763489,852.419678 939.763794,838.233643 941.017151,823.267944 
	C943.716003,805.197327 947.459778,787.472534 958.526306,771.600830 
M398.816956,825.816833 
	C400.732635,825.508545 402.648285,825.200317 404.562683,824.892273 
	C410.071350,838.036804 415.338379,850.757874 420.792084,863.398438 
	C421.385284,864.773315 422.954742,866.491699 424.246735,866.653931 
	C427.813416,867.101624 431.473083,866.808777 435.888672,866.808777 
	C420.136475,829.612549 404.649353,793.042297 388.532715,754.985474 
	C384.946106,761.476807 382.095581,766.635925 378.774963,772.206055 
	C370.538971,789.978638 361.906891,807.582214 354.222595,825.590271 
	C349.942932,835.619507 346.490936,846.156799 346.869873,857.406738 
	C347.054840,862.896545 349.949402,867.167175 354.438904,867.842163 
	C359.176819,868.554565 362.385895,865.812622 364.462952,861.911316 
	C366.254150,858.546875 367.677185,854.975952 369.117554,851.437073 
	C374.539185,838.116150 383.592865,828.934387 398.816956,825.816833 
M556.224609,787.769592 
	C557.577515,790.194763 558.831238,792.682068 560.301575,795.033752 
	C565.078430,802.674011 571.535889,807.474915 581.797241,807.102173 
	C589.462769,807.343262 594.230103,811.422729 596.303101,818.568604 
	C597.595581,823.023865 598.191650,827.676575 599.353760,832.175232 
	C601.051880,838.748779 602.508911,845.441711 604.913025,851.762695 
	C608.820862,862.037415 624.964355,868.895447 637.699524,865.529236 
	C628.099243,864.151978 623.752380,857.683411 620.105286,850.635559 
	C617.508606,845.617615 615.279419,840.403259 613.020020,835.218201 
	C607.923523,823.522339 603.083374,811.655518 588.920959,806.044678 
	C591.147644,805.488220 592.089478,805.262634 593.026062,805.017212 
	C604.216370,802.084717 611.458740,793.846375 612.077087,783.350464 
	C612.724976,772.354370 607.691467,764.490784 595.841553,760.530151 
	C589.001160,758.243896 581.587341,757.120178 574.358337,756.682007 
	C563.953613,756.051270 553.482239,756.520935 542.930298,756.520935 
	C542.930298,793.378784 542.930298,829.905151 542.930298,866.519043 
	C547.231628,866.519043 551.135071,866.519043 555.030640,866.519043 
	C555.245667,865.781616 555.501953,865.313293 555.501709,864.845093 
	C555.489075,839.192566 555.454895,813.539978 556.224609,787.769592 
M127.748459,692.871887 
	C133.067871,706.481140 138.344086,720.107727 143.772339,733.673462 
	C144.326706,735.058960 145.792831,736.079651 146.835861,737.269653 
	C147.152954,736.965210 147.470047,736.660767 147.787140,736.356323 
	C50.134808,518.843506 133.618668,294.055756 284.564758,177.680771 
	C443.024109,55.513283 662.338318,46.029854 830.884094,162.047913 
	C914.308899,219.473129 972.989075,296.436615 1005.715088,392.192200 
	C1045.565552,508.793549 1039.069580,623.789368 989.968872,736.872314 
	C991.846924,735.360779 993.481750,733.596069 994.265137,731.511475 
	C1000.980774,713.641296 1008.319031,695.956177 1014.011292,677.759094 
	C1034.995728,610.676025 1039.228149,542.246277 1028.650635,472.870819 
	C1021.460999,425.716461 1007.388794,380.670441 986.310059,337.842163 
	C948.271118,260.553772 892.980652,198.533295 820.737671,151.775757 
	C787.406860,130.203186 751.758972,113.234650 713.981628,100.746758 
	C680.351624,89.629837 645.923035,82.202309 610.711365,79.227036 
	C559.605591,74.908752 508.979309,78.352242 458.988800,90.637810 
	C421.177979,99.930115 385.013214,113.367462 350.662109,131.587936 
	C301.803162,157.503662 258.793640,190.945816 221.953629,232.307434 
	C183.242004,275.770416 153.758453,324.770782 132.957855,379.067352 
	C116.959274,420.828979 107.338249,464.061737 104.140793,508.615417 
	C99.642509,571.294739 107.384674,632.521973 127.748459,692.871887 
M658.974060,777.484985 
	C648.929382,790.800964 645.054565,805.663818 648.086365,822.126587 
	C653.503540,851.542236 680.981201,871.211365 710.393738,866.851135 
	C739.568298,862.526184 760.214539,836.253540 757.265442,807.206116 
	C754.896667,783.874756 740.164551,765.010437 718.626526,758.722595 
	C695.060486,751.842712 675.493591,758.933655 658.974060,777.484985 
M775.615173,839.850830 
	C783.508362,852.980225 794.603149,862.397217 809.563904,865.783264 
	C854.376343,875.925659 888.241638,835.137939 876.209717,796.474609 
	C869.655518,775.413513 855.722839,761.889221 834.335815,757.355225 
	C813.430359,752.923218 795.196960,759.638062 781.558716,775.878784 
	C765.330688,795.203613 764.112366,816.784607 775.615173,839.850830 
M651.224060,1001.635498 
	C680.101196,996.483337 708.204346,988.484802 735.569336,978.015198 
	C784.633118,959.243896 829.120972,932.628296 869.402710,898.950989 
	C872.975403,895.963989 876.361084,892.753357 879.833679,889.646545 
	C879.513000,889.217285 879.192383,888.788086 878.871704,888.358826 
	C876.891785,889.578369 874.702637,890.554871 872.962158,892.052673 
	C795.866882,958.398621 706.568726,995.901245 605.339417,1004.742798 
	C563.478271,1008.398987 521.829651,1005.863892 480.547485,997.784973 
	C429.011566,987.699524 380.606628,969.365356 335.270294,942.886353 
	C310.051117,928.156921 286.422333,911.220398 264.345917,892.096069 
	C262.562256,890.550842 260.175934,889.701233 258.069672,888.528381 
	C257.795074,888.998047 257.520477,889.467712 257.245911,889.937378 
	C263.467896,895.181030 269.557220,900.592285 275.933044,905.641724 
	C323.078339,942.978699 375.068024,971.254883 432.684784,988.843933 
	C472.024536,1000.853394 512.261108,1007.768677 553.403564,1008.969543 
	C585.961853,1009.919922 618.297607,1007.456604 651.224060,1001.635498 
M461.506531,756.215515 
	C456.414001,756.215515 451.321503,756.215515 446.098389,756.215515 
	C446.098389,760.835327 446.098389,764.743103 446.098389,769.556213 
	C456.792175,759.151184 469.486389,758.340332 482.928070,758.543335 
	C482.928070,794.855957 482.928070,830.617554 482.928070,866.598022 
	C487.180206,866.598022 491.097809,866.598022 495.730408,866.598022 
	C495.730408,830.386169 495.730408,794.396912 495.730408,758.358826 
	C509.173340,758.534851 521.693420,759.379700 532.048462,769.484009 
	C532.048462,764.597168 532.048462,760.690430 532.048462,756.215515 
	C508.693634,756.215515 485.598755,756.215515 461.506531,756.215515 
z"/>
<path fill="#000000" opacity="1.000000" stroke="none" 
	d="
M1149.000000,498.531342 
	C1148.333984,498.184418 1147.199463,497.435974 1147.071533,496.543274 
	C1144.651489,479.656555 1142.426880,462.741791 1140.005737,445.855225 
	C1136.727295,422.989075 1130.648071,400.750092 1122.836670,379.120148 
	C1115.384644,358.484833 1106.711548,338.262939 1097.917358,318.146912 
	C1087.445923,294.194305 1074.095581,271.760712 1058.958740,250.492416 
	C1047.869141,234.910629 1036.443481,219.490265 1024.103149,204.898056 
	C1011.323242,189.785843 997.716736,175.294769 983.609558,161.407959 
	C972.789001,150.756500 961.033081,140.938141 948.968506,131.695190 
	C931.254883,118.124352 913.196655,104.950027 894.702087,92.471138 
	C882.734863,84.396538 869.786926,77.757690 857.172424,70.664024 
	C830.226257,55.511108 801.663086,43.903645 772.667725,33.476864 
	C757.594971,28.056665 741.956604,24.126467 726.428772,20.079302 
	C712.100403,16.344761 697.662537,12.904966 683.115845,10.171336 
	C670.666992,7.831946 658.010010,6.556150 645.417053,5.043455 
	C637.779785,4.126035 630.086487,3.680051 622.426880,2.934561 
	C621.713501,2.865128 621.061707,2.162084 620.690674,1.376620 
	C796.924988,1.000000 972.849915,1.000000 1149.000000,1.000000 
	C1149.000000,166.687500 1149.000000,332.375092 1149.000000,498.531342 
z"/>
<path fill="#000000" opacity="1.000000" stroke="none" 
	d="
M1.000007,583.468628 
	C1.666001,583.815613 2.800643,584.564148 2.928587,585.456909 
	C5.348614,602.343750 7.573155,619.258545 9.994302,636.145203 
	C13.272799,659.011414 19.352137,681.250366 27.163393,702.880432 
	C34.615402,723.515686 43.288383,743.737549 52.082684,763.853455 
	C62.554356,787.805969 75.904602,810.239746 91.041504,831.507996 
	C102.131134,847.089661 113.556763,862.510071 125.897041,877.102234 
	C138.677017,892.214355 152.283447,906.705444 166.390671,920.592163 
	C177.211182,931.243652 188.967072,941.062012 201.031631,950.305054 
	C218.745193,963.875793 236.803482,977.050049 255.298035,989.528931 
	C267.265228,997.603516 280.213287,1004.242249 292.827759,1011.335938 
	C319.773956,1026.489014 348.337128,1038.096191 377.332489,1048.523071 
	C392.405243,1053.943237 408.043610,1057.873657 423.571472,1061.920776 
	C437.899811,1065.655273 452.337616,1069.095093 466.884369,1071.828613 
	C479.333191,1074.168091 491.990082,1075.443848 504.583038,1076.956543 
	C512.220276,1077.873779 519.913635,1078.319702 527.573181,1079.065308 
	C528.286560,1079.134766 528.938354,1079.837891 529.309326,1080.623413 
	C353.075073,1081.000000 177.150131,1081.000000 1.000000,1081.000000 
	C1.000000,915.312500 1.000000,749.624939 1.000007,583.468628 
z"/>
<path fill="#000000" opacity="1.000000" stroke="none" 
	d="
M528.531372,0.999994 
	C528.184326,1.665965 527.387573,2.888559 526.550232,2.917068 
	C501.069336,3.784601 475.997955,8.135734 451.180847,13.285902 
	C429.671448,17.749645 408.499573,24.039236 387.425171,30.346073 
	C364.204773,37.295128 341.898010,46.725956 319.890259,56.925060 
	C294.279785,68.793777 269.503723,82.153107 246.262222,98.109451 
	C229.315628,109.744041 212.608795,121.870834 196.819778,135.009583 
	C179.987473,149.016479 163.416565,163.586182 148.457809,179.529816 
	C131.626816,197.468994 116.290581,216.877701 101.098335,236.269394 
	C84.166252,257.881805 70.332718,281.603668 57.750008,305.951843 
	C50.464897,320.048889 44.228886,334.718384 38.075134,349.363159 
	C26.983582,375.759064 18.871098,403.153931 12.581067,431.044495 
	C9.735472,443.662079 7.933085,456.532654 6.071871,469.348663 
	C4.688349,478.875366 3.989099,488.500885 2.914400,498.074463 
	C2.852515,498.625732 2.153247,499.105438 1.375306,499.309235 
	C1.000000,333.070770 1.000000,167.141525 1.000000,1.000000 
	C176.687500,1.000000 352.375092,1.000000 528.531372,0.999994 
z"/>
<path fill="#000000" opacity="1.000000" stroke="none" 
	d="
M621.468628,1081.000000 
	C621.815674,1080.334106 622.612366,1079.111450 623.449707,1079.083008 
	C648.930542,1078.215332 674.001892,1073.863770 698.818970,1068.713989 
	C720.328430,1064.250732 741.500305,1057.960938 762.574646,1051.653931 
	C785.795105,1044.704712 808.102051,1035.274170 830.109924,1025.074951 
	C855.720276,1013.206055 880.496277,999.846924 903.737732,983.890564 
	C920.684326,972.256042 937.391113,960.129272 953.180115,946.990479 
	C970.012390,932.983582 986.583191,918.413879 1001.541870,902.470215 
	C1018.372864,884.531006 1033.709595,865.122742 1048.901245,845.730652 
	C1065.832642,824.117920 1079.668579,800.397644 1092.249756,776.048584 
	C1099.534058,761.950989 1105.771240,747.282104 1111.924683,732.637207 
	C1123.015991,706.241211 1131.129272,678.846558 1137.418701,650.955811 
	C1140.264160,638.338196 1142.067017,625.467773 1143.928101,612.651794 
	C1145.311523,603.125061 1146.010864,593.499573 1147.085449,583.925964 
	C1147.147339,583.374512 1147.846680,582.894653 1148.624756,582.690735 
	C1149.000000,748.929199 1149.000000,914.858398 1149.000000,1081.000000 
	C973.312500,1081.000000 797.624878,1081.000000 621.468628,1081.000000 
z"/>
<path fill="#96B6C5" opacity="1.000000" stroke="none" 
	d="
M657.326904,408.573883 
	C650.921936,412.027405 644.808777,416.266113 638.053406,418.776794 
	C622.258179,424.647278 606.465759,425.230713 591.969116,414.869415 
	C588.447327,412.352234 585.670166,408.793091 582.768982,405.928589 
	C589.237915,400.502136 595.289246,396.108246 600.525574,390.895599 
	C612.529114,378.946320 618.889771,363.919586 620.793396,347.405151 
	C621.997559,336.958710 622.225403,326.091949 620.758728,315.715088 
	C618.352478,298.691284 602.155823,285.205963 585.475525,284.852386 
	C567.684814,282.665710 552.507019,287.928711 538.394043,296.819031 
	C514.054565,312.151459 498.062592,334.695618 485.130951,359.682861 
	C471.056274,386.878693 462.991058,415.989746 459.209991,446.253906 
	C455.640839,474.822144 455.580292,503.251404 463.045441,531.457336 
	C474.598267,575.107849 508.759613,604.708130 553.504578,609.095703 
	C572.323669,610.940918 591.028687,610.411865 609.676941,607.073059 
	C636.926880,602.193970 662.204407,592.627136 684.611511,576.113342 
	C685.994629,575.093933 686.834900,573.338074 687.927734,571.924866 
	C687.927673,571.924866 688.002014,571.969543 688.347778,572.117493 
	C689.133362,571.653015 689.573181,571.040588 690.013062,570.428101 
	C693.073975,568.053406 695.985107,565.437256 699.259155,563.405762 
	C700.897766,562.389038 703.198242,562.439087 705.716187,562.355103 
	C710.338623,566.003784 711.096191,570.230957 709.009888,574.795715 
	C706.811157,579.606750 704.389038,584.350952 701.633789,588.861206 
	C699.429138,592.470276 696.579102,595.685120 694.015503,599.074890 
	C694.015503,599.074890 694.006592,599.005615 693.724365,598.998291 
	C693.297241,599.353516 693.152283,599.716125 693.007263,600.078674 
	C693.007263,600.078674 693.003235,600.002747 692.709473,600.038940 
	C691.922302,600.520447 691.428894,600.965759 690.935486,601.411133 
	C666.367920,623.304443 637.858887,637.839966 606.222290,646.325562 
	C587.713623,651.289978 568.848389,653.751770 549.625793,654.287659 
	C521.576172,655.069641 494.587280,650.733521 469.300323,638.493958 
	C427.140656,618.087463 401.045959,584.309692 389.097015,539.365479 
	C382.970398,516.321228 382.283600,492.876465 383.628357,469.116425 
	C384.981964,445.200104 388.967499,421.882629 396.202698,399.160065 
	C408.468445,360.638611 428.794678,327.071991 459.378876,300.235382 
	C484.435089,278.249390 513.392578,263.972626 546.273682,258.102203 
	C556.209778,256.328278 566.310547,255.477051 577.034668,254.467468 
	C589.257996,256.070801 601.036926,256.325684 612.258240,258.957794 
	C642.541382,266.061157 665.340637,283.431793 675.768616,313.250275 
	C687.552795,346.946869 684.256165,378.825165 658.537842,406.056793 
	C657.928711,406.701782 657.721497,407.726349 657.326904,408.573883 
z"/>
<path fill="#273856" opacity="1.000000" stroke="none" 
	d="
M687.552185,571.871216 
	C686.834900,573.338074 685.994629,575.093933 684.611511,576.113342 
	C662.204407,592.627136 636.926880,602.193970 609.676941,607.073059 
	C591.028687,610.411865 572.323669,610.940918 553.504578,609.095703 
	C508.759613,604.708130 474.598267,575.107849 463.045441,531.457336 
	C455.580292,503.251404 455.640839,474.822144 459.209991,446.253906 
	C462.991058,415.989746 471.056274,386.878693 485.130951,359.682861 
	C498.062592,334.695618 514.054565,312.151459 538.394043,296.819031 
	C552.507019,287.928711 567.684814,282.665710 585.075989,284.836731 
	C557.027466,300.935150 538.902100,325.772644 525.229492,354.397369 
	C511.051758,384.079712 503.754883,415.494873 501.855042,448.281799 
	C500.614960,469.682190 501.305389,490.884186 506.893005,511.707092 
	C518.525513,555.057251 550.625854,581.968933 595.400146,585.985352 
	C627.161316,588.834351 657.719482,583.892761 687.552185,571.871216 
z"/>
<path fill="#1C1C1C" opacity="1.000000" stroke="none" 
	d="
M127.618454,692.497864 
	C107.384674,632.521973 99.642509,571.294739 104.140793,508.615417 
	C107.338249,464.061737 116.959274,420.828979 132.957855,379.067352 
	C153.758453,324.770782 183.242004,275.770416 221.953629,232.307434 
	C258.793640,190.945816 301.803162,157.503662 350.662109,131.587936 
	C385.013214,113.367462 421.177979,99.930115 458.988800,90.637810 
	C508.979309,78.352242 559.605591,74.908752 610.711365,79.227036 
	C645.923035,82.202309 680.351624,89.629837 713.981628,100.746758 
	C751.758972,113.234650 787.406860,130.203186 820.737671,151.775757 
	C892.980652,198.533295 948.271118,260.553772 986.310059,337.842163 
	C1007.388794,380.670441 1021.460999,425.716461 1028.650635,472.870819 
	C1039.228149,542.246277 1034.995728,610.676025 1014.011292,677.759094 
	C1008.319031,695.956177 1000.980774,713.641296 994.265137,731.511475 
	C993.481750,733.596069 991.846924,735.360779 989.968872,736.872314 
	C1039.069580,623.789368 1045.565552,508.793549 1005.715088,392.192200 
	C972.989075,296.436615 914.308899,219.473129 830.884094,162.047913 
	C662.338318,46.029854 443.024109,55.513283 284.564758,177.680771 
	C133.618668,294.055756 50.134808,518.843506 147.787140,736.356323 
	C147.470047,736.660767 147.152954,736.965210 146.835861,737.269653 
	C145.792831,736.079651 144.326706,735.058960 143.772339,733.673462 
	C138.344086,720.107727 133.067871,706.481140 127.618454,692.497864 
z"/>
<path fill="#283957" opacity="1.000000" stroke="none" 
	d="
M657.694702,408.520142 
	C657.721497,407.726349 657.928711,406.701782 658.537842,406.056793 
	C684.256165,378.825165 687.552795,346.946869 675.768616,313.250275 
	C665.340637,283.431793 642.541382,266.061157 612.258240,258.957794 
	C601.036926,256.325684 589.257996,256.070801 577.450317,254.442139 
	C600.330994,249.045837 623.510864,247.483414 646.959106,252.644669 
	C691.076660,262.355560 718.617065,299.700806 714.382874,344.651062 
	C712.398865,365.713165 704.973572,384.071381 687.512329,397.226929 
	C678.797791,403.792633 668.931213,407.476471 657.694702,408.520142 
z"/>
<path fill="#080808" opacity="1.000000" stroke="none" 
	d="
M555.422852,787.887451 
	C555.454895,813.539978 555.489075,839.192566 555.501709,864.845093 
	C555.501953,865.313293 555.245667,865.781616 555.030640,866.519043 
	C551.135071,866.519043 547.231628,866.519043 542.930298,866.519043 
	C542.930298,829.905151 542.930298,793.378784 542.930298,756.520935 
	C553.482239,756.520935 563.953613,756.051270 574.358337,756.682007 
	C581.587341,757.120178 589.001160,758.243896 595.841553,760.530151 
	C607.691467,764.490784 612.724976,772.354370 612.077087,783.350464 
	C611.458740,793.846375 604.216370,802.084717 593.026062,805.017212 
	C592.089478,805.262634 591.147644,805.488220 588.920959,806.044678 
	C603.083374,811.655518 607.923523,823.522339 613.020020,835.218201 
	C615.279419,840.403259 617.508606,845.617615 620.105286,850.635559 
	C623.752380,857.683411 628.099243,864.151978 637.699524,865.529236 
	C624.964355,868.895447 608.820862,862.037415 604.913025,851.762695 
	C602.508911,845.441711 601.051880,838.748779 599.353760,832.175232 
	C598.191650,827.676575 597.595581,823.023865 596.303101,818.568604 
	C594.230103,811.422729 589.462769,807.343262 581.446533,806.756531 
	C581.409546,805.965759 581.723267,805.520569 582.415161,805.012207 
	C592.162170,802.977966 597.267456,797.272095 598.773926,787.088318 
	C600.533997,775.190552 597.123596,766.807373 588.421143,762.327759 
	C578.056885,756.992615 566.906738,758.331116 554.592224,758.185364 
	C555.733215,767.309692 556.776062,775.649536 557.427063,784.002563 
	C556.497742,785.306335 555.960327,786.596924 555.422852,787.887451 
z"/>
<path fill="#0A0A0A" opacity="1.000000" stroke="none" 
	d="
M659.205994,777.214844 
	C675.493591,758.933655 695.060486,751.842712 718.626526,758.722595 
	C740.164551,765.010437 754.896667,783.874756 757.265442,807.206116 
	C760.214539,836.253540 739.568298,862.526184 710.393738,866.851135 
	C680.981201,871.211365 653.503540,851.542236 648.086365,822.126587 
	C645.054565,805.663818 648.929382,790.800964 659.205994,777.214844 
M660.998474,793.782593 
	C657.259399,817.775635 664.017151,838.327820 682.040344,854.598450 
	C702.768005,873.310669 731.723145,865.755066 741.353943,839.524414 
	C750.157471,815.546509 743.347778,787.155396 724.508484,769.943115 
	C713.194824,759.606506 700.210388,755.664368 685.410156,761.185547 
	C670.796936,766.636841 664.192688,778.497925 660.998474,793.782593 
z"/>
<path fill="#09090A" opacity="1.000000" stroke="none" 
	d="
M775.422363,839.537659 
	C764.112366,816.784607 765.330688,795.203613 781.558716,775.878784 
	C795.196960,759.638062 813.430359,752.923218 834.335815,757.355225 
	C855.722839,761.889221 869.655518,775.413513 876.209717,796.474609 
	C888.241638,835.137939 854.376343,875.925659 809.563904,865.783264 
	C794.603149,862.397217 783.508362,852.980225 775.422363,839.537659 
M866.042664,814.686401 
	C865.056396,796.903381 858.154602,781.759705 845.133850,769.676331 
	C824.810547,750.816162 795.828430,757.112488 785.226685,782.469971 
	C774.502258,808.120667 784.307434,841.896423 807.114807,857.867126 
	C826.230469,871.252930 850.430664,864.861938 860.451477,843.739441 
	C864.668396,834.850525 866.365417,825.430542 866.042664,814.686401 
z"/>
<path fill="#1B1B1C" opacity="1.000000" stroke="none" 
	d="
M650.805908,1001.739136 
	C618.297607,1007.456604 585.961853,1009.919922 553.403564,1008.969543 
	C512.261108,1007.768677 472.024536,1000.853394 432.684784,988.843933 
	C375.068024,971.254883 323.078339,942.978699 275.933044,905.641724 
	C269.557220,900.592285 263.467896,895.181030 257.245911,889.937378 
	C257.520477,889.467712 257.795074,888.998047 258.069672,888.528381 
	C260.175934,889.701233 262.562256,890.550842 264.345917,892.096069 
	C286.422333,911.220398 310.051117,928.156921 335.270294,942.886353 
	C380.606628,969.365356 429.011566,987.699524 480.547485,997.784973 
	C521.829651,1005.863892 563.478271,1008.398987 605.339417,1004.742798 
	C706.568726,995.901245 795.866882,958.398621 872.962158,892.052673 
	C874.702637,890.554871 876.891785,889.578369 878.871704,888.358826 
	C879.192383,888.788086 879.513000,889.217285 879.833679,889.646545 
	C876.361084,892.753357 872.975403,895.963989 869.402710,898.950989 
	C829.120972,932.628296 784.633118,959.243896 735.569336,978.015198 
	C708.204346,988.484802 680.101196,996.483337 650.805908,1001.739136 
z"/>
<path fill="#0D0E0E" opacity="1.000000" stroke="none" 
	d="
M462.005219,756.215515 
	C485.598755,756.215515 508.693634,756.215515 532.048462,756.215515 
	C532.048462,760.690430 532.048462,764.597168 532.048462,769.484009 
	C521.693420,759.379700 509.173340,758.534851 495.730408,758.358826 
	C495.730408,794.396912 495.730408,830.386169 495.730408,866.598022 
	C491.097809,866.598022 487.180206,866.598022 482.928070,866.598022 
	C482.928070,830.617554 482.928070,794.855957 482.928070,758.543335 
	C469.486389,758.340332 456.792175,759.151184 446.098389,769.556213 
	C446.098389,764.743103 446.098389,760.835327 446.098389,756.215515 
	C451.321503,756.215515 456.414001,756.215515 462.005219,756.215515 
z"/>
<path fill="#070808" opacity="1.000000" stroke="none" 
	d="
M890.599854,764.916443 
	C890.599854,798.709900 890.599854,832.503357 890.599854,866.296753 
	C890.163086,866.293945 889.726318,866.291138 889.289551,866.288269 
	C889.289551,829.818970 889.289551,793.349670 889.289551,756.802368 
	C890.052490,756.667297 890.696960,756.479614 891.348877,756.448792 
	C902.452209,755.923096 902.339478,755.975647 906.741882,766.277954 
	C916.215942,788.448547 925.815979,810.565247 935.375610,832.699280 
	C935.757935,833.584595 936.254639,834.420471 937.274597,836.395935 
	C937.900146,831.785278 938.374390,828.289856 939.252808,824.409607 
	C940.026001,824.032410 940.395081,824.039978 940.764038,824.047607 
	C939.763794,838.233643 938.763489,852.419678 937.763245,866.605774 
	C937.335999,866.783325 936.908813,866.960938 936.481567,867.138489 
	C921.737793,833.256165 906.994019,799.373779 892.220276,764.797852 
	C891.629333,763.557678 891.068420,763.011047 890.507507,762.464355 
	C890.538330,763.281738 890.569092,764.099121 890.599854,764.916443 
z"/>
<path fill="#080808" opacity="1.000000" stroke="none" 
	d="
M379.245056,771.794983 
	C382.095581,766.635925 384.946106,761.476807 388.532715,754.985474 
	C404.649353,793.042297 420.136475,829.612549 435.888672,866.808777 
	C431.473083,866.808777 427.813416,867.101624 424.246735,866.653931 
	C422.954742,866.491699 421.385284,864.773315 420.792084,863.398438 
	C415.338379,850.757874 410.071350,838.036804 404.562683,824.892273 
	C402.648285,825.200317 400.732635,825.508545 398.433594,825.530273 
	C398.041321,824.863098 398.032440,824.482483 398.401428,823.976562 
	C400.308075,823.538147 401.836884,823.225159 403.722839,822.838989 
	C398.412720,810.513916 393.428070,798.772705 388.290283,787.098877 
	C386.051178,782.011047 383.498138,777.061401 380.630005,771.963806 
	C379.863251,771.850708 379.554169,771.822876 379.245056,771.794983 
z"/>
<path fill="#0A0A0B" opacity="1.000000" stroke="none" 
	d="
M956.939758,770.893005 
	C963.410278,761.811707 971.973083,756.737488 983.608765,756.701843 
	C983.608765,793.475647 983.608765,829.859253 983.608765,866.530396 
	C979.476440,866.530396 975.582947,866.530396 971.227722,866.530396 
	C971.227722,831.606323 971.227722,796.886047 971.227722,762.165771 
	C970.765808,761.817688 970.303894,761.469543 969.841919,761.121460 
	C966.070068,764.614563 962.298157,768.107666 958.026245,771.674438 
	C957.330627,771.463074 957.135193,771.178040 956.939758,770.893005 
z"/>
<path fill="#020202" opacity="1.000000" stroke="none" 
	d="
M323.927582,813.863159 
	C323.927582,794.918152 323.927582,775.973145 323.927582,756.736694 
	C328.101654,756.736694 332.005554,756.736694 336.151764,756.736694 
	C336.151764,793.413574 336.151764,829.807251 336.151764,866.497253 
	C332.079254,866.497253 328.194702,866.497253 323.742798,866.497253 
	C323.742798,855.278198 323.985291,844.168457 323.638428,833.077026 
	C323.470062,827.694336 322.197968,822.346191 321.722504,816.537842 
	C322.655487,815.349976 323.291534,814.606567 323.927582,813.863159 
z"/>
<path fill="#080808" opacity="1.000000" stroke="none" 
	d="
M216.967300,866.882507 
	C188.413315,872.119995 162.231262,852.777100 155.366364,826.577393 
	C147.684341,797.259094 163.480560,768.926514 192.616333,759.395386 
	C192.982452,760.041992 192.984833,760.406921 192.987198,760.771851 
	C174.391800,768.059326 167.586807,783.410156 166.180649,801.656067 
	C164.386902,824.931274 173.159424,843.948486 191.848633,858.052795 
	C198.916931,863.387024 207.055191,866.116333 216.500427,865.787048 
	C216.927277,866.391296 216.947296,866.636902 216.967300,866.882507 
z"/>
<path fill="#040404" opacity="1.000000" stroke="none" 
	d="
M272.933258,866.577759 
	C269.464264,866.577759 265.995239,866.577759 262.060547,866.577759 
	C262.060547,830.029053 262.060547,793.534363 262.060547,756.736572 
	C265.834076,756.736572 269.592163,756.736572 274.084839,756.736572 
	C274.084839,761.920654 274.077209,766.996277 274.086548,772.071838 
	C274.101593,780.230896 274.027771,788.392334 274.223328,796.547241 
	C274.269226,798.461487 275.241516,800.353516 275.645935,802.923523 
	C274.682983,805.311768 273.165619,807.024902 273.147247,808.753967 
	C272.942322,828.027100 272.969025,847.302795 272.933258,866.577759 
z"/>
<path fill="#2A3B59" opacity="1.000000" stroke="none" 
	d="
M694.379395,599.048218 
	C696.579102,595.685120 699.429138,592.470276 701.633789,588.861206 
	C704.389038,584.350952 706.811157,579.606750 709.009888,574.795715 
	C711.096191,570.230957 710.338623,566.003784 706.130127,562.370972 
	C714.122131,555.740845 722.144592,549.345947 730.373596,543.228821 
	C731.994446,542.023926 734.756226,540.928345 736.372864,541.508179 
	C738.346313,542.215942 740.490356,544.517029 741.052795,546.546875 
	C741.702454,548.891357 741.484985,552.140198 740.286682,554.210815 
	C736.330994,561.046143 732.479370,568.166382 727.271851,574.003235 
	C718.083923,584.301514 707.069702,592.609314 694.379395,599.048218 
z"/>
<path fill="#2F2F30" opacity="1.000000" stroke="none" 
	d="
M398.023560,824.101929 
	C398.032440,824.482483 398.041321,824.863098 398.043213,825.529358 
	C383.592865,828.934387 374.539185,838.116150 369.117554,851.437073 
	C367.677185,854.975952 366.254150,858.546875 364.462952,861.911316 
	C362.385895,865.812622 359.176819,868.554565 354.438904,867.842163 
	C349.949402,867.167175 347.054840,862.896545 346.869873,857.406738 
	C346.490936,846.156799 349.942932,835.619507 354.222595,825.590271 
	C361.906891,807.582214 370.538971,789.978638 379.010010,772.000488 
	C379.554169,771.822876 379.863251,771.850708 380.521606,772.300171 
	C369.710907,794.262268 358.654968,815.865845 351.848724,839.280518 
	C350.289673,844.643860 349.547791,850.307800 349.024994,855.889099 
	C348.620361,860.208923 349.648895,864.520996 354.877472,865.459778 
	C359.842194,866.351196 361.926880,862.584900 363.660828,858.892334 
	C365.494781,854.986816 366.976349,850.916321 368.795135,847.003052 
	C374.640320,834.426636 384.049866,826.335327 398.023560,824.101929 
z"/>
<path fill="#121212" opacity="1.000000" stroke="none" 
	d="
M193.381332,760.725830 
	C192.984833,760.406921 192.982452,760.041992 192.987244,759.403381 
	C209.864090,753.648438 225.743759,755.034912 240.275589,765.906433 
	C244.218887,768.856445 246.830475,772.271423 246.001495,777.678528 
	C245.539413,780.692444 245.918488,783.835388 245.918488,788.541809 
	C233.286865,768.100342 219.013260,753.598816 193.381332,760.725830 
z"/>
<path fill="#262627" opacity="1.000000" stroke="none" 
	d="
M273.304321,866.566528 
	C272.969025,847.302795 272.942322,828.027100 273.147247,808.753967 
	C273.165619,807.024902 274.682983,805.311768 275.748718,803.301270 
	C280.249176,809.182556 286.694061,809.350525 293.214417,809.263062 
	C298.832092,809.187683 304.566010,808.319824 310.030457,809.182922 
	C314.642273,809.911316 318.941162,812.621155 323.653076,814.158569 
	C323.291534,814.606567 322.655487,815.349976 321.582886,816.149780 
	C317.622070,812.446777 313.229523,810.895569 308.145050,811.036438 
	C302.656677,811.188538 297.116272,811.815125 291.692047,811.282593 
	C285.983063,810.722046 280.384674,809.035278 274.193695,807.725403 
	C274.193695,808.286865 274.193726,810.010681 274.193726,811.734497 
	C274.193787,828.381287 274.208160,845.028137 274.171265,861.674805 
	C274.167664,863.302002 273.848175,864.928467 273.304321,866.566528 
z"/>
<path fill="#121212" opacity="1.000000" stroke="none" 
	d="
M229.000153,862.000183 
	C241.895096,854.827148 248.143158,843.246948 251.387680,829.211792 
	C251.387680,835.044006 251.523392,840.881958 251.280899,846.704102 
	C251.228149,847.970703 250.096970,849.571167 248.992035,850.352539 
	C242.683731,854.813721 236.233200,859.073792 229.440613,863.107056 
	C229.033554,862.541260 229.016846,862.270691 229.000153,862.000183 
z"/>
<path fill="#2F2F30" opacity="1.000000" stroke="none" 
	d="
M956.634888,771.044128 
	C957.135193,771.178040 957.330627,771.463074 957.756226,771.870239 
	C947.459778,787.472534 943.716003,805.197327 940.890625,823.657776 
	C940.395081,824.039978 940.026001,824.032410 939.379761,824.024292 
	C941.221375,805.232666 945.338318,787.093018 956.634888,771.044128 
z"/>
<path fill="#535355" opacity="1.000000" stroke="none" 
	d="
M582.036987,805.075439 
	C581.723267,805.520569 581.409546,805.965759 581.062500,806.681702 
	C571.535889,807.474915 565.078430,802.674011 560.301575,795.033752 
	C558.831238,792.682068 557.577515,790.194763 555.823730,787.828491 
	C555.960327,786.596924 556.497742,785.306335 557.629028,784.240112 
	C562.424744,795.651672 568.374695,804.818970 582.036987,805.075439 
z"/>
<path fill="#363738" opacity="1.000000" stroke="none" 
	d="
M228.623260,862.037720 
	C229.016846,862.270691 229.033554,862.541260 229.071320,863.217957 
	C225.321609,864.738708 221.550873,865.853394 217.373718,866.925293 
	C216.947296,866.636902 216.927277,866.391296 216.930389,865.776855 
	C220.717789,864.297119 224.482086,863.186157 228.623260,862.037720 
z"/>
<path fill="#363738" opacity="1.000000" stroke="none" 
	d="
M890.959167,764.712280 
	C890.569092,764.099121 890.538330,763.281738 890.507507,762.464355 
	C891.068420,763.011047 891.629333,763.557678 892.147095,764.434814 
	C891.842041,764.679565 891.580200,764.593872 890.959167,764.712280 
z"/>
<path fill="#273856" opacity="1.000000" stroke="none" 
	d="
M689.698181,570.572083 
	C689.573181,571.040588 689.133362,571.653015 688.310059,572.101562 
	C688.412109,571.530457 688.897705,571.123230 689.698181,570.572083 
z"/>
<path fill="#2A3B59" opacity="1.000000" stroke="none" 
	d="
M691.232666,601.247070 
	C691.428894,600.965759 691.922302,600.520447 692.747498,600.037476 
	C692.562805,600.360901 692.046326,600.721985 691.232666,601.247070 
z"/>
<path fill="#2A3B59" opacity="1.000000" stroke="none" 
	d="
M693.297668,600.057678 
	C693.152283,599.716125 693.297241,599.353516 693.759338,598.998535 
	C693.913635,599.349609 693.750854,599.693176 693.297668,600.057678 
z"/>
<path fill="#F1F3F9" opacity="1.000000" stroke="none" 
	d="
M582.415161,805.012207 
	C568.374695,804.818970 562.424744,795.651672 558.020935,784.226929 
	C556.776062,775.649536 555.733215,767.309692 554.592224,758.185364 
	C566.906738,758.331116 578.056885,756.992615 588.421143,762.327759 
	C597.123596,766.807373 600.533997,775.190552 598.773926,787.088318 
	C597.267456,797.272095 592.162170,802.977966 582.415161,805.012207 
z"/>
<path fill="#F2F4FA" opacity="1.000000" stroke="none" 
	d="
M661.079224,793.363159 
	C664.192688,778.497925 670.796936,766.636841 685.410156,761.185547 
	C700.210388,755.664368 713.194824,759.606506 724.508484,769.943115 
	C743.347778,787.155396 750.157471,815.546509 741.353943,839.524414 
	C731.723145,865.755066 702.768005,873.310669 682.040344,854.598450 
	C664.017151,838.327820 657.259399,817.775635 661.079224,793.363159 
z"/>
<path fill="#F2F4FA" opacity="1.000000" stroke="none" 
	d="
M866.044067,815.155151 
	C866.365417,825.430542 864.668396,834.850525 860.451477,843.739441 
	C850.430664,864.861938 826.230469,871.252930 807.114807,857.867126 
	C784.307434,841.896423 774.502258,808.120667 785.226685,782.469971 
	C795.828430,757.112488 824.810547,750.816162 845.133850,769.676331 
	C858.154602,781.759705 865.056396,796.903381 866.044067,815.155151 
z"/>
<path fill="#F0F2F8" opacity="1.000000" stroke="none" 
	d="
M398.401428,823.976562 
	C384.049866,826.335327 374.640320,834.426636 368.795135,847.003052 
	C366.976349,850.916321 365.494781,854.986816 363.660828,858.892334 
	C361.926880,862.584900 359.842194,866.351196 354.877472,865.459778 
	C349.648895,864.520996 348.620361,860.208923 349.024994,855.889099 
	C349.547791,850.307800 350.289673,844.643860 351.848724,839.280518 
	C358.654968,815.865845 369.710907,794.262268 380.979248,772.385376 
	C383.498138,777.061401 386.051178,782.011047 388.290283,787.098877 
	C393.428070,798.772705 398.412720,810.513916 403.722839,822.838989 
	C401.836884,823.225159 400.308075,823.538147 398.401428,823.976562 
z"/>
</svg>